<svg width="28" height="28" viewBox="0 0 28 28" fill="none" xmlns="http://www.w3.org/2000/svg">
<path opacity="0.4" d="M14.0602 2.92105C20.2003 2.92105 25.1937 7.91553 25.1937 14.0545C25.1937 20.1935 20.2003 25.188 14.0602 25.188C7.92125 25.188 2.92677 20.1935 2.92677 14.0545C2.92677 7.91553 7.92125 2.92105 14.0602 2.92105Z" fill="white"/>
<path d="M12.4543 9.35542C12.667 9.35542 12.8808 9.43669 13.0433 9.59924L16.9255 13.4626C17.0825 13.6195 17.1705 13.8322 17.1705 14.0549C17.1705 14.2764 17.0825 14.4891 16.9255 14.646L13.0433 18.5116C12.7171 18.8367 12.1894 18.8367 11.8632 18.5094C11.5381 18.182 11.5392 17.6532 11.8654 17.3281L15.1531 14.0549L11.8654 10.7816C11.5392 10.4565 11.5381 9.92879 11.8632 9.60147C12.0257 9.43669 12.2406 9.35542 12.4543 9.35542Z" fill="white"/>
</svg>
