<svg width="36" height="32" viewBox="0 0 36 32" fill="none" xmlns="http://www.w3.org/2000/svg">
<g clip-path="url(#clip0_3930_4074)">
<path d="M22.9742 11.1575C22.979 11.1575 22.9855 11.1575 22.992 11.1575C23.1618 11.1575 23.3195 11.2103 23.4487 11.3013L23.4462 11.2997C23.5405 11.3817 23.6038 11.4971 23.6193 11.6271V11.6296C23.6355 11.7287 23.6445 11.8424 23.6445 11.9586C23.6445 12.0114 23.6429 12.0634 23.6388 12.1154V12.1081C23.456 14.0329 22.663 18.7007 22.26 20.8555C22.0893 21.7679 21.7538 22.0734 21.4288 22.1027C20.7227 22.1685 20.1865 21.6363 19.5024 21.1878C18.4315 20.485 17.8262 20.0479 16.787 19.3629C15.5853 18.5724 16.3645 18.1361 17.0486 17.4259C17.2282 17.2391 20.3408 14.4075 20.4018 14.1507C20.405 14.1353 20.4067 14.1182 20.4067 14.1004C20.4067 14.037 20.3831 13.9793 20.3449 13.9354C20.3027 13.9078 20.2499 13.8924 20.1946 13.8924C20.158 13.8924 20.1231 13.8997 20.0906 13.9119L20.0922 13.9111C19.985 13.9354 18.2744 15.0659 14.9605 17.3024C14.5989 17.5876 14.1423 17.768 13.645 17.7891H13.6402C12.9357 17.7038 12.2963 17.547 11.6894 17.3236L11.7495 17.3431C10.9874 17.0944 10.382 16.9636 10.434 16.5427C10.4617 16.3239 10.7634 16.0999 11.3392 15.8708C14.886 14.3254 17.2512 13.3068 18.4347 12.815C19.7404 12.1219 21.2541 11.5516 22.8458 11.1819L22.9733 11.1567L22.9742 11.1575ZM17.9432 3.83281C11.1978 3.84906 5.73535 9.32125 5.73535 16.0691C5.73535 22.8266 11.2132 28.3053 17.9716 28.3053C24.73 28.3053 30.2078 22.8274 30.2078 16.0691C30.2078 9.32125 24.7454 3.84906 18.0017 3.83281H18C17.9811 3.83281 17.9621 3.83281 17.9432 3.83281Z" fill="#A0A0A0"/>
</g>
<defs>
<clipPath id="clip0_3930_4074">
<rect width="26" height="26" fill="white" transform="translate(5 3)"/>
</clipPath>
</defs>
</svg>
