<svg width="28" height="28" viewBox="0 0 28 28" fill="none" xmlns="http://www.w3.org/2000/svg">
  <path opacity="0.4"
        d="M14.0605 2.92667C7.92036 2.92667 2.927 7.92114 2.927 14.0601C2.927 20.1991 7.92036 25.1936 14.0605 25.1936C20.1995 25.1936 25.1939 20.1991 25.1939 14.0601C25.1939 7.92114 20.1995 2.92667 14.0605 2.92667Z"
        fill="white"/>
  <path
    d="M15.6664 9.36103C15.4537 9.36103 15.2399 9.44231 15.0774 9.60486L11.1952 13.4682C11.0382 13.6252 10.9502 13.8378 10.9502 14.0605C10.9502 14.282 11.0382 14.4947 11.1952 14.6517L15.0774 18.5172C15.4036 18.8423 15.9313 18.8423 16.2575 18.515C16.5826 18.1876 16.5815 17.6588 16.2553 17.3337L12.9676 14.0605L16.2553 10.7872C16.5815 10.4621 16.5826 9.93441 16.2575 9.60708C16.095 9.44231 15.8801 9.36103 15.6664 9.36103Z"
    fill="white"/>
</svg>
