<svg width="24" height="24" viewBox="0 0 24 24" fill="none" xmlns="http://www.w3.org/2000/svg">
<path opacity="0.4" d="M19.9926 18.9532H14.2983C13.7428 18.9532 13.2909 19.4123 13.2909 19.9766C13.2909 20.5421 13.7428 21 14.2983 21H19.9926C20.5482 21 21 20.5421 21 19.9766C21 19.4123 20.5482 18.9532 19.9926 18.9532" fill="#A0A0A0"/>
<path d="M10.309 6.90385L15.7049 11.2639C15.835 11.3682 15.8573 11.5596 15.7557 11.6929L9.35874 20.0282C8.95662 20.5431 8.36402 20.8344 7.72908 20.8452L4.23696 20.8882C4.05071 20.8903 3.88775 20.7613 3.84542 20.5764L3.05175 17.1258C2.91419 16.4915 3.05175 15.8358 3.45388 15.3306L9.88256 6.95545C9.98627 6.82108 10.1778 6.79743 10.309 6.90385" fill="#A0A0A0"/>
<path opacity="0.4" d="M18.1205 8.66544L17.0803 9.96401C16.9755 10.0962 16.7872 10.1177 16.657 10.0124C15.3924 8.98901 12.1543 6.36285 11.2559 5.63509C11.1247 5.52759 11.1067 5.33625 11.2125 5.20295L12.2157 3.95706C13.1257 2.78534 14.7131 2.67784 15.9935 3.69906L17.4644 4.87078C18.0676 5.34377 18.4698 5.96726 18.6073 6.62299C18.7661 7.3443 18.5967 8.0527 18.1205 8.66544" fill="#A0A0A0"/>
</svg>
