<svg width="26" height="26" viewBox="0 0 26 26" fill="none" xmlns="http://www.w3.org/2000/svg">
  <path opacity="0.4"
        d="M9.90572 22.5139V19.1915C9.9057 18.3496 10.5903 17.6656 11.4383 17.6603H14.552C15.4038 17.6603 16.0943 18.3458 16.0943 19.1915V22.5043C16.0943 23.2345 16.6877 23.828 17.4232 23.8333H19.5475C20.5396 23.8358 21.492 23.4464 22.1944 22.7508C22.8969 22.0552 23.2917 21.1106 23.2917 20.1256V10.688C23.2917 9.89233 22.9364 9.1376 22.3217 8.62712L15.1049 2.89711C13.8434 1.89487 12.0417 1.92725 10.8175 2.97416L3.75594 8.62712C3.11215 9.12255 2.72736 9.87952 2.70834 10.688V20.116C2.70834 22.169 4.38467 23.8333 6.45253 23.8333H8.52832C8.88245 23.8359 9.22295 23.698 9.47427 23.4503C9.72559 23.2026 9.86693 22.8655 9.86692 22.5139H9.90572Z"
        fill="white"/>
</svg>
