<svg width="29" height="29" viewBox="0 0 29 29" fill="none" xmlns="http://www.w3.org/2000/svg">
  <path opacity="0.4"
        d="M14.5545 2.50803C20.9887 2.50803 26.2212 7.7417 26.2212 14.1747C26.2212 20.6077 20.9887 25.8414 14.5545 25.8414C8.12155 25.8414 2.88788 20.6077 2.88788 14.1747C2.88788 7.7417 8.12155 2.50803 14.5545 2.50803Z"
        fill="white"/>
  <path
    d="M12.8718 9.25056C13.0946 9.25056 13.3186 9.33572 13.4889 9.50606L17.5571 13.5544C17.7216 13.7189 17.8138 13.9417 17.8138 14.1751C17.8138 14.4072 17.7216 14.6301 17.5571 14.7946L13.4889 18.8452C13.1471 19.1859 12.5941 19.1859 12.2523 18.8429C11.9116 18.4999 11.9128 17.9457 12.2546 17.6051L15.6998 14.1751L12.2546 10.7451C11.9128 10.4044 11.9116 9.85139 12.2523 9.50839C12.4226 9.33572 12.6478 9.25056 12.8718 9.25056Z"
    fill="white"/>
</svg>
