<svg width="25" height="24" viewBox="0 0 25 24" fill="none" xmlns="http://www.w3.org/2000/svg">
  <g id="Iconly/Bulk/Setting">
    <g id="Setting">
      <path id="Path"
            d="M12.3339 14.8301C10.7294 14.8301 9.43151 13.5801 9.43151 12.0101C9.43151 10.4401 10.7294 9.18011 12.3339 9.18011C13.9383 9.18011 15.2056 10.4401 15.2056 12.0101C15.2056 13.5801 13.9383 14.8301 12.3339 14.8301Z"
            fill="white" fill-opacity="0.56"/>
      <path id="Path_2" opacity="0.4"
            d="M21.5519 14.3701C21.3578 14.0701 21.0818 13.7701 20.7241 13.5801C20.438 13.4401 20.254 13.2101 20.0905 12.9401C19.5693 12.0801 19.8759 10.9501 20.7446 10.4401C21.7665 9.87012 22.0936 8.60012 21.5008 7.61012L20.8161 6.43012C20.2336 5.44012 18.9562 5.09012 17.9444 5.67012C17.0451 6.15012 15.8903 5.83012 15.3691 4.98012C15.2056 4.70012 15.1136 4.40012 15.134 4.10012C15.1647 3.71012 15.0421 3.34012 14.8581 3.04012C14.48 2.42012 13.7953 2.00012 13.039 2.00012H11.5981C10.852 2.02012 10.1673 2.42012 9.78919 3.04012C9.59502 3.34012 9.48261 3.71012 9.50305 4.10012C9.52349 4.40012 9.43151 4.70012 9.268 4.98012C8.7468 5.83012 7.59199 6.15012 6.70288 5.67012C5.68093 5.09012 4.4137 5.44012 3.82096 6.43012L3.13625 7.61012C2.55374 8.60012 2.88076 9.87012 3.8925 10.4401C4.76116 10.9501 5.06775 12.0801 4.55677 12.9401C4.38304 13.2101 4.19909 13.4401 3.91294 13.5801C3.56547 13.7701 3.25889 14.0701 3.09537 14.3701C2.71725 14.9901 2.73769 15.7701 3.11581 16.4201L3.82096 17.6201C4.19909 18.2601 4.90424 18.6601 5.64005 18.6601C5.98751 18.6601 6.3963 18.5601 6.72332 18.3601C6.97881 18.1901 7.2854 18.1301 7.62264 18.1301C8.63438 18.1301 9.48261 18.9601 9.50305 19.9501C9.50305 21.1001 10.4432 22.0001 11.6287 22.0001H13.0186C14.1938 22.0001 15.134 21.1001 15.134 19.9501C15.1647 18.9601 16.0129 18.1301 17.0247 18.1301C17.3517 18.1301 17.6583 18.1901 17.924 18.3601C18.251 18.5601 18.6496 18.6601 19.0072 18.6601C19.7328 18.6601 20.438 18.2601 20.8161 17.6201L21.5315 16.4201C21.8994 15.7501 21.93 14.9901 21.5519 14.3701Z"
            fill="white" fill-opacity="0.56"/>
    </g>
  </g>
</svg>
