<svg width="30" height="30" viewBox="0 0 30 30" fill="none" xmlns="http://www.w3.org/2000/svg">
  <path
    d="M14.9363 18.1749C10.6238 18.1749 6.98511 18.8796 6.98511 21.5993C6.98511 24.3201 10.6473 25 14.9363 25C19.2488 25 22.8875 24.2953 22.8875 21.5756C22.8875 18.8548 19.2253 18.1749 14.9363 18.1749Z"
    fill="white"/>
  <path opacity="0.4"
        d="M14.9363 15.5838C17.8564 15.5838 20.1979 13.2288 20.1979 10.2919C20.1979 7.35383 17.8564 5 14.9363 5C12.0162 5 9.67467 7.35383 9.67467 10.2919C9.67467 13.2288 12.0162 15.5838 14.9363 15.5838Z"
        fill="white"/>
  <path opacity="0.4"
        d="M26.3599 11.5241C27.1154 8.55224 24.9004 5.88322 22.0799 5.88322C21.7732 5.88322 21.48 5.91699 21.1935 5.9744C21.1554 5.98341 21.1129 6.00254 21.0905 6.03632C21.0648 6.07909 21.0838 6.1365 21.1118 6.17365C21.959 7.36914 22.4459 8.82466 22.4459 10.3871C22.4459 11.8843 21.9993 13.2802 21.2159 14.4385C21.1353 14.5578 21.2069 14.7188 21.349 14.7436C21.546 14.7785 21.7475 14.7965 21.9534 14.8021C24.0073 14.8561 25.8507 13.5267 26.3599 11.5241Z"
        fill="white"/>
  <path
    d="M28.5116 18.5212C28.1355 17.7152 27.2278 17.1625 25.8478 16.8912C25.1964 16.7313 23.4335 16.5062 21.7938 16.5366C21.7692 16.54 21.7558 16.5568 21.7535 16.5681C21.7502 16.5839 21.7569 16.6109 21.7894 16.6278C22.5471 17.0049 25.4762 18.645 25.108 22.1043C25.0923 22.254 25.212 22.3834 25.3609 22.3609C26.0817 22.2574 27.9363 21.8566 28.5116 20.6082C28.8295 19.9486 28.8295 19.182 28.5116 18.5212Z"
    fill="white"/>
  <path opacity="0.4"
        d="M8.80602 5.97474C8.52061 5.9162 8.22625 5.88356 7.91958 5.88356C5.09906 5.88356 2.88405 8.55258 3.64067 11.5244C4.14881 13.527 5.99222 14.8565 8.04605 14.8024C8.25199 14.7968 8.45458 14.7777 8.65045 14.7439C8.79259 14.7191 8.86423 14.5582 8.78364 14.4388C8.00016 13.2794 7.55358 11.8846 7.55358 10.3875C7.55358 8.82387 8.04157 7.36835 8.88885 6.17399C8.91571 6.13684 8.93586 6.07943 8.909 6.03665C8.88661 6.00176 8.8452 5.98375 8.80602 5.97474Z"
        fill="white"/>
  <path
    d="M4.15194 16.8908C2.7719 17.1621 1.86531 17.7148 1.48924 18.5208C1.17025 19.1816 1.17025 19.9482 1.48924 20.609C2.06454 21.8563 3.91914 22.2581 4.63994 22.3606C4.7888 22.3831 4.90744 22.2548 4.89177 22.1039C4.52354 18.6458 7.45262 17.0057 8.21148 16.6285C8.24282 16.6105 8.24953 16.5846 8.24617 16.5678C8.24393 16.5565 8.23162 16.5396 8.207 16.5374C6.56617 16.5058 4.80447 16.731 4.15194 16.8908Z"
    fill="white"/>
</svg>
