<svg width="36" height="32" viewBox="0 0 36 32" fill="none" xmlns="http://www.w3.org/2000/svg">
  <path
    d="M33.8675 7.26933C34.0951 6.50039 33.8675 5.93445 32.7726 5.93445H29.1493C28.2266 5.93445 27.8021 6.42042 27.5745 6.96175C27.5745 6.96175 25.7291 11.4585 23.1208 14.3743C22.2781 15.2171 21.8905 15.4878 21.4292 15.4878C21.2016 15.4878 20.8509 15.2171 20.8509 14.4481V7.26933C20.8509 6.3466 20.5926 5.93445 19.8298 5.93445H14.1335C13.5552 5.93445 13.2107 6.36505 13.2107 6.7649C13.2107 7.63842 14.5149 7.84142 14.6502 10.302V15.6415C14.6502 16.8103 14.4411 17.0256 13.9797 17.0256C12.7494 17.0256 9.75975 12.5104 7.98811 7.34315C7.63133 6.34045 7.28069 5.93445 6.35181 5.93445H2.72857C1.69511 5.93445 1.48596 6.42042 1.48596 6.96175C1.48596 7.92139 2.71626 12.6888 7.21302 18.988C10.2088 23.2879 14.4287 25.6193 18.2673 25.6193C20.5741 25.6193 20.8571 25.1026 20.8571 24.2106C20.8571 20.1014 20.6479 19.7138 21.8044 19.7138C22.3396 19.7138 23.2623 19.9845 25.4154 22.0576C27.876 24.5182 28.282 25.6193 29.6599 25.6193H33.2831C34.3166 25.6193 34.8395 25.1026 34.5381 24.0814C33.8491 21.9345 29.1924 17.5178 28.9832 17.2225C28.4481 16.5335 28.6018 16.2259 28.9832 15.6108C28.9894 15.6046 33.4123 9.3793 33.8675 7.26933Z"
    fill="#A0A0A0"/>
</svg>
