<svg width="24" height="24" viewBox="0 0 24 24" fill="none" xmlns="http://www.w3.org/2000/svg">
  <path
    d="M6.75 8.25C6.75 7.8 7.05 7.5 7.5 7.5C7.95 7.5 8.25 7.8 8.25 8.25V12H22.5V5.25C22.5 3.975 21.525 3 20.25 3H3.75C2.475 3 1.5 3.975 1.5 5.25V18.75C1.5 20.025 2.475 21 3.75 21H6.75V8.25ZM9.075 5.7C9.15 5.625 9.15 5.55 9.225 5.475C9.525 5.175 9.975 5.175 10.275 5.475C10.35 5.55 10.425 5.625 10.425 5.7C10.5 5.775 10.5 5.925 10.5 6C10.5 6.075 10.5 6.225 10.425 6.3C10.35 6.375 10.35 6.45 10.275 6.525C10.125 6.675 9.975 6.75 9.75 6.75C9.675 6.75 9.525 6.75 9.45 6.675C9.375 6.6 9.3 6.6 9.225 6.525C9.15 6.45 9.075 6.375 9.075 6.3C9 6.225 9 6.075 9 6C9 5.925 9 5.775 9.075 5.7ZM6.825 5.7C6.9 5.625 6.9 5.55 6.975 5.475C7.05 5.4 7.125 5.325 7.2 5.325C7.5 5.175 7.8 5.25 8.025 5.475C8.1 5.55 8.175 5.625 8.175 5.7C8.25 5.775 8.25 5.925 8.25 6C8.25 6.225 8.175 6.375 8.025 6.525C7.875 6.675 7.725 6.75 7.5 6.75C7.275 6.75 7.125 6.675 6.975 6.525C6.825 6.375 6.75 6.225 6.75 6C6.75 5.925 6.75 5.775 6.825 5.7ZM5.775 6.525C5.625 6.675 5.475 6.75 5.25 6.75C5.025 6.75 4.875 6.675 4.725 6.525C4.575 6.375 4.5 6.225 4.5 6C4.5 5.775 4.575 5.625 4.725 5.475L4.8 5.4C4.875 5.4 4.875 5.325 4.95 5.325C5.025 5.25 5.025 5.25 5.1 5.25C5.175 5.25 5.325 5.25 5.4 5.25C5.475 5.25 5.475 5.25 5.55 5.325C5.625 5.325 5.625 5.4 5.7 5.4L5.775 5.475C5.85 5.55 5.925 5.625 5.925 5.7C6 5.775 6 5.925 6 6C6 6.075 6 6.225 5.925 6.3C5.925 6.375 5.85 6.45 5.775 6.525Z"
    fill="#A0A0A0"/>
  <path d="M8.25 13.5V21H20.25C21.525 21 22.5 20.025 22.5 18.75V13.5H8.25Z" fill="#A0A0A0"/>
</svg>
